<svg xmlns="http://www.w3.org/2000/svg" viewBox="0 0 200 200">
  <defs>
    <linearGradient id="bg" x1="0%" y1="0%" x2="100%" y2="100%">
      <stop offset="0%" style="stop-color:#3b82f6;stop-opacity:0.15" />
      <stop offset="100%" style="stop-color:#1d4ed8;stop-opacity:0.25" />
    </linearGradient>
  </defs>
  <circle cx="100" cy="100" r="100" fill="#f8fafc" />
  <circle cx="100" cy="100" r="100" fill="url(#bg)" />
  <circle cx="100" cy="85" r="28" fill="none" stroke="#3b82f6" stroke-width="1.5" opacity="0.5" />
  <ellipse cx="100" cy="135" rx="35" ry="20" fill="none" stroke="#3b82f6" stroke-width="1.5" opacity="0.5" />
  <circle cx="100" cy="40" r="2.5" fill="#3b82f6" opacity="0.6" />
  <circle cx="140" cy="60" r="2" fill="#3b82f6" opacity="0.4" />
  <circle cx="60" cy="60" r="2" fill="#3b82f6" opacity="0.4" />
  <circle cx="145" cy="90" r="2" fill="#3b82f6" opacity="0.5" />
  <circle cx="55" cy="90" r="2" fill="#3b82f6" opacity="0.5" />
  <line x1="100" y1="40" x2="140" y2="60" stroke="#3b82f6" stroke-width="0.5" opacity="0.2" />
  <line x1="100" y1="40" x2="60" y2="60" stroke="#3b82f6" stroke-width="0.5" opacity="0.2" />
  <line x1="140" y1="60" x2="145" y2="90" stroke="#3b82f6" stroke-width="0.5" opacity="0.2" />
  <line x1="60" y1="60" x2="55" y2="90" stroke="#3b82f6" stroke-width="0.5" opacity="0.2" />
  <line x1="145" y1="90" x2="100" y2="85" stroke="#3b82f6" stroke-width="0.5" opacity="0.15" />
  <line x1="55" y1="90" x2="100" y2="85" stroke="#3b82f6" stroke-width="0.5" opacity="0.15" />
  <circle cx="90" cy="82" r="3" fill="#3b82f6" opacity="0.6" />
  <circle cx="110" cy="82" r="3" fill="#3b82f6" opacity="0.6" />
</svg>